<?xml version="1.0" encoding="utf-8"?>
<!-- Generator: Adobe Illustrator 22.1.0, SVG Export Plug-In . SVG Version: 6.00 Build 0)  -->
<svg version="1.1" id="Слой_1" xmlns="http://www.w3.org/2000/svg" xmlns:xlink="http://www.w3.org/1999/xlink" x="0px" y="0px"
	 viewBox="0 0 417.4 288.9" style="enable-background:new 0 0 417.4 288.9;" xml:space="preserve">
<style type="text/css">
	.st0{clip-path:url(#SVGID_2_);}
	.st1{clip-path:url(#SVGID_4_);fill:#42494F;}
	.st2{clip-path:url(#SVGID_4_);fill:#F7CB2E;}
	.st3{clip-path:url(#SVGID_4_);fill:#EDAE08;}
	.st4{clip-path:url(#SVGID_4_);fill:#62696F;}
	.st5{clip-path:url(#SVGID_4_);fill:#FFFFFF;}
	.st6{opacity:0.8;clip-path:url(#SVGID_4_);}
	.st7{clip-path:url(#SVGID_6_);fill:#FFFFFF;}
	.st8{clip-path:url(#SVGID_4_);fill:#FF0000;}
	.st9{clip-path:url(#SVGID_8_);}
	.st10{clip-path:url(#SVGID_10_);fill:url(#SVGID_11_);}
</style>
<g>
	<defs>
		<rect id="SVGID_1_" width="417.4" height="288.9"/>
	</defs>
	<clipPath id="SVGID_2_">
		<use xlink:href="#SVGID_1_"  style="overflow:visible;"/>
	</clipPath>
	<g class="st0">
		<defs>
			<rect id="SVGID_3_" y="0" width="417.4" height="288.9"/>
		</defs>
		<clipPath id="SVGID_4_">
			<use xlink:href="#SVGID_3_"  style="overflow:visible;"/>
		</clipPath>
		<path class="st1" d="M107.2,269.8c0,10.5-8.5,19.1-19.1,19.1H56.8c-10.5,0-19.1-8.5-19.1-19.1H107.2z"/>
		<path class="st1" d="M361.7,269.8c0,10.5-8.5,19.1-19.1,19.1h-31.2c-10.5,0-19.1-8.5-19.1-19.1H361.7z"/>
		<path class="st2" d="M384.4,71.8c0-39.7-32.2-71.8-71.8-71.8H86.9C47.2,0,15.1,32.2,15.1,71.8v169.5h369.3V71.8z"/>
		<path class="st3" d="M312.5,15.7v209.9h56.1V71.8C368.6,40.9,343.5,15.7,312.5,15.7"/>
		<rect x="384.4" y="73.7" class="st4" width="33.1" height="21.3"/>
		<path class="st4" d="M399.4,274.3H0v-18.3c0-8.2,6.6-14.8,14.8-14.8h369.9c8.2,0,14.8,6.6,14.8,14.8V274.3z"/>
		<rect x="323" y="134.9" class="st5" width="4.5" height="12.6"/>
		<g class="st6">
			<g>
				<defs>
					<rect id="SVGID_5_" x="71.9" y="15.7" width="12.7" height="209.9"/>
				</defs>
				<clipPath id="SVGID_6_">
					<use xlink:href="#SVGID_5_"  style="overflow:visible;"/>
				</clipPath>
				<path class="st7" d="M78.3,225.6L78.3,225.6c-3.5,0-6.4-2.8-6.4-6.4V22.1c0-3.5,2.8-6.4,6.4-6.4c3.5,0,6.4,2.8,6.4,6.4v197.2
					C84.6,222.7,81.8,225.6,78.3,225.6"/>
			</g>
		</g>
		<path class="st8" d="M276.5,187.8c0,5.4-4.4,9.9-9.9,9.9c-5.4,0-9.9-4.4-9.9-9.9s4.4-9.9,9.9-9.9
			C272.1,178,276.5,182.4,276.5,187.8"/>
		<path class="st5" d="M266.9,185.1c0,1.6-1.3,3-3,3c-1.6,0-3-1.3-3-3c0-1.6,1.3-3,3-3C265.5,182.1,266.9,183.4,266.9,185.1"/>
		<g class="st6">
			<g>
				<defs>
					<rect id="SVGID_7_" x="30.8" y="23.3" width="28.1" height="202.3"/>
				</defs>
				<clipPath id="SVGID_8_">
					<use xlink:href="#SVGID_7_"  style="overflow:visible;"/>
				</clipPath>
				<g class="st9">
					<defs>
						<path id="SVGID_9_" d="M58.8,23.3C42.1,33,30.8,51.1,30.8,71.8v153.8h28.1V23.3z"/>
					</defs>
					<clipPath id="SVGID_10_">
						<use xlink:href="#SVGID_9_"  style="overflow:visible;"/>
					</clipPath>
					
						<linearGradient id="SVGID_11_" gradientUnits="userSpaceOnUse" x1="3.602182e-06" y1="288.921" x2="1" y2="288.921" gradientTransform="matrix(28.0634 0 0 -28.0634 30.7719 8232.5293)">
						<stop  offset="0" style="stop-color:#666666"/>
						<stop  offset="1" style="stop-color:#FFFFFF"/>
					</linearGradient>
					<rect x="30.8" y="23.3" class="st10" width="28.1" height="202.3"/>
				</g>
			</g>
		</g>
	</g>
</g>
</svg>
