<?xml version="1.0" encoding="utf-8"?>
<!-- Generator: Adobe Illustrator 22.1.0, SVG Export Plug-In . SVG Version: 6.00 Build 0)  -->
<svg version="1.1" id="Слой_1" xmlns="http://www.w3.org/2000/svg" xmlns:xlink="http://www.w3.org/1999/xlink" x="0px" y="0px"
	 viewBox="0 0 1000 561.8" style="enable-background:new 0 0 1000 561.8;" xml:space="preserve">
<style type="text/css">
	.st0{fill:#EC107D;}
</style>
<g>
	<g>
		<path class="st0" d="M984.8,507.3c-1.2-2.6-2.3-4.7-3.3-6.4c-17-30.6-49.5-68.2-97.5-112.8l-1-1l-0.5-0.5l-0.5-0.5h-0.5
			c-21.8-20.8-35.6-34.7-41.3-41.8c-10.6-13.6-12.9-27.4-7.2-41.3c4.1-10.5,19.4-32.8,45.9-66.8c14-18,25-32.5,33.2-43.4
			c58.9-78.2,84.4-128.2,76.5-150l-3-5.1c-2-3.1-7.3-5.9-15.8-8.4c-8.5-2.6-19.4-3-32.7-1.3l-146.9,1c-2.4-0.8-5.8-0.8-10.2,0.3
			c-4.4,1-6.6,1.5-6.6,1.5l-2.6,1.3l-2,1.5c-1.7,1-3.6,2.8-5.6,5.4c-2,2.5-3.7,5.5-5.1,8.9c-16,41.2-34.2,79.4-54.6,114.8
			c-12.6,21.1-24.1,39.4-34.7,54.9c-10.5,15.5-19.4,26.9-26.5,34.2c-7.1,7.3-13.6,13.2-19.4,17.6c-5.8,4.4-10.2,6.3-13.3,5.6
			c-3.1-0.7-6-1.4-8.7-2c-4.8-3.1-8.6-7.2-11.5-12.5c-2.9-5.3-4.9-11.9-5.9-19.9s-1.6-14.9-1.8-20.7c-0.2-5.8-0.1-14,0.3-24.5
			c0.4-10.5,0.5-17.7,0.5-21.4c0-12.9,0.3-27,0.8-42.1s0.9-27.1,1.3-36c0.3-8.8,0.5-18.2,0.5-28.1s-0.6-17.6-1.8-23.2
			s-3-11.1-5.3-16.3c-2.4-5.3-5.9-9.4-10.5-12.2c-4.6-2.9-10.3-5.2-17.1-6.9c-18-4.1-41-6.3-68.9-6.6C418.2,1.9,377.6,6,359.6,14.9
			c-7.1,3.7-13.6,8.8-19.4,15.3c-6.1,7.5-7,11.6-2.6,12.2c20.4,3.1,34.9,10.4,43.4,21.9l3.1,6.1c2.4,4.4,4.8,12.2,7.1,23.5
			c2.4,11.2,3.9,23.6,4.6,37.2c1.7,24.8,1.7,46.1,0,63.8c-1.7,17.7-3.3,31.5-4.8,41.3c-1.5,9.9-3.8,17.9-6.9,24
			c-3.1,6.1-5.1,9.9-6.1,11.2c-1,1.4-1.9,2.2-2.5,2.6c-4.4,1.7-9,2.6-13.8,2.6s-10.5-2.4-17.3-7.1c-6.8-4.8-13.9-11.3-21.2-19.6
			c-7.3-8.3-15.6-20-24.8-35c-9.2-15-18.7-32.7-28.6-53.1l-8.2-14.8c-5.1-9.5-12.1-23.4-20.9-41.6c-8.8-18.2-16.7-35.8-23.5-52.8
			c-2.7-7.1-6.8-12.6-12.2-16.3l-2.6-1.5c-1.7-1.4-4.4-2.8-8.2-4.3c-3.7-1.5-7.7-2.6-11.7-3.3l-139.8,1c-14.3,0-24,3.2-29.1,9.7
			l-2,3.1c-1,1.7-1.5,4.4-1.5,8.2c0,3.7,1,8.3,3.1,13.8c20.4,48,42.6,94.2,66.6,138.8s44.8,80.5,62.5,107.7s35.7,52.9,54.1,77
			c18.4,24.2,30.5,39.6,36.5,46.4c6,6.8,10.6,11.9,14,15.3l12.8,12.2c8.2,8.2,20.2,17.9,36,29.3c15.8,11.4,33.3,22.6,52.6,33.7
			c19.2,11,41.6,20.1,67.1,27c25.5,7,50.3,9.8,74.5,8.4h58.7c11.9-1,20.9-4.8,27-11.2l2-2.6c1.4-2,2.6-5.2,3.8-9.4
			c1.2-4.3,1.8-8.9,1.8-14c-0.3-14.6,0.8-27.8,3.3-39.5s5.4-20.6,8.7-26.5c3.2-6,6.9-11,11-15c4.1-4.1,7-6.6,8.7-7.4
			c1.7-0.9,3-1.4,4.1-1.8c8.2-2.7,17.8-0.1,28.8,7.9c11.1,8,21.4,17.9,31.1,29.6c9.7,11.7,21.3,24.9,34.9,39.5
			c13.6,14.6,25.5,25.5,35.7,32.7l10.2,6.1c6.8,4.1,15.7,7.8,26.5,11.2c10.9,3.4,20.4,4.2,28.6,2.6l130.6-2c12.9,0,23-2.1,30.1-6.4
			c7.1-4.3,11.4-8.9,12.8-14c1.4-5.1,1.4-10.9,0.3-17.4C987.2,514.4,986,509.8,984.8,507.3z"/>
	</g>
</g>
</svg>
